<svg class="diagram-root" style="background: #f5f6f6" xmlns="http://www.w3.org/2000/svg" xmlns:xlink="http://www.w3.org/1999/xlink"><style>.diagram-root { font-family: "Helvetica Neue", sans-serif; font-size: 12px; } .t { overflow: visible; } .t-bg { y: 40; fill: #fff;   } .th { fill: #005aa0;   } .tht { fill: #fff; font-size: 14px;  } .tf { fill: #323c46; overflow: visible; } .tf.pk { fill: #005aa0; font-weight: bold; } .tf.fk { font-weight: bold; } .ty { fill: #adb1b5; font-weight: normal; text-anchor: end; } .r { fill: transparent; stroke: #c3c3c3; stroke-width: 1; } .l { stroke: 1; } .i { fill: #c2c7ce; stroke: #c2c7ce; } .i.ix { fill: #afb3b6; stroke: #000; } .fa { fill: transparent; overflow: visible; } .fa .bg.hover { fill: #f7f7f7; } .c { cy: 12; r: 4; stroke: #d2d2dc; fill: #d2d2dc; } .hr { fill: transparent; stroke: #323c46; stroke-opacity: 0.035; stroke-width: 13; } .dc { stroke: #fa5a3c; fill: #fa5a3c; } .x { stroke: white; stroke-width: 1; } .hl .th { fill: #1b9bff; } .hl .tht {  } .fhl .bg { fill: #e7f4ff; } .fhls .bg {  } .r.hl { stroke: #1b9bff; } .dim { opacity: 0.25; }</style><g class="drawing-wrapper" transform="translate(175.90142857142848, 242.25) scale(1,1)"><g class="rs"><path d="M 291.84 132.03 m -1, 0 a 1,1 0 1,0 2,0 a 1,1 0 1,0 -2,0 M 291.84 132.03 m -0.5, 0 a 0.5,0.5 0 1,0 1,0 a 0.5,0.5 0 1,0 -1,0  M291.84 132.03 L291.84 132.03 279.84 132.03 M285.84 138.03 L285.84 138.03 285.84 126.03 M279.84 132.03 Q 255.04 132.03, 230.24 232.75 T 180.63 333.4642857142857 M 168.63 333.4642857142857 m -1, 0 a 1,1 0 1,0 2,0 a 1,1 0 1,0 -2,0 M 168.63 333.4642857142857 m -0.5, 0 a 0.5,0.5 0 1,0 1,0 a 0.5,0.5 0 1,0 -1,0  M168.63 333.4642857142857 L168.63 333.4642857142857 180.63 333.4642857142857 M174.63 339.4642857142857 L174.63 339.4642857142857 174.63 327.4642857142857" id="h3727105277" class="r"></path><path d="M 291.84 132.03 m -1, 0 a 1,1 0 1,0 2,0 a 1,1 0 1,0 -2,0 M 291.84 132.03 m -0.5, 0 a 0.5,0.5 0 1,0 1,0 a 0.5,0.5 0 1,0 -1,0  M291.84 132.03 L291.84 132.03 279.84 132.03 M285.84 138.03 L285.84 138.03 285.84 126.03 M279.84 132.03 Q 215.36 132.03, 150.89 122.15 T 21.93 112.27714285714274 M 9.93 112.27714285714274 m -1, 0 a 1,1 0 1,0 2,0 a 1,1 0 1,0 -2,0 M 9.93 112.27714285714274 m -0.5, 0 a 0.5,0.5 0 1,0 1,0 a 0.5,0.5 0 1,0 -1,0  M9.93 112.27714285714274 L9.93 112.27714285714274 21.93 112.27714285714274 M15.93 118.27714285714274 L15.93 118.27714285714274 15.93 106.27714285714274" id="h888204564" class="r"></path><path d="M 220.58 -55.25 m -1, 0 a 1,1 0 1,0 2,0 a 1,1 0 1,0 -2,0 M 220.58 -55.25 m -0.5, 0 a 0.5,0.5 0 1,0 1,0 a 0.5,0.5 0 1,0 -1,0  M220.58 -55.25 L220.58 -55.25 232.58 -55.25 M226.58 -49.25 L226.58 -49.25 226.58 -61.25 M232.58 -55.25 C 282.58000000000004 -55.25, 408.97 112.27714285714274, 21.93 112.27714285714274 M 9.93 112.27714285714274 m -1, 0 a 1,1 0 1,0 2,0 a 1,1 0 1,0 -2,0 M 9.93 112.27714285714274 m -0.5, 0 a 0.5,0.5 0 1,0 1,0 a 0.5,0.5 0 1,0 -1,0  M9.93 112.27714285714274 L9.93 112.27714285714274 21.93 112.27714285714274 M15.93 118.27714285714274 L15.93 118.27714285714274 15.93 106.27714285714274" id="h3789520452" class="r"></path><path d="M 58.75 -55.25 m -1, 0 a 1,1 0 1,0 2,0 a 1,1 0 1,0 -2,0 M 58.75 -55.25 m -0.5, 0 a 0.5,0.5 0 1,0 1,0 a 0.5,0.5 0 1,0 -1,0  M58.75 -55.25 L58.75 -55.25 46.75 -55.25 M52.75 -49.25 L52.75 -49.25 52.75 -61.25 M46.75 -55.25 C -83.13571428571406 -55.25, -53.17857142857128 333.4642857142857, -3.1785714285712796 333.4642857142857 M 8.82142857142872 333.4642857142857 m -1, 0 a 1,1 0 1,0 2,0 a 1,1 0 1,0 -2,0 M 8.82142857142872 333.4642857142857 m -0.5, 0 a 0.5,0.5 0 1,0 1,0 a 0.5,0.5 0 1,0 -1,0  M8.82142857142872 333.4642857142857 L8.82142857142872 333.4642857142857 -3.1785714285712796 333.4642857142857 M2.8214285714287204 339.4642857142857 L2.8214285714287204 339.4642857142857 2.8214285714287204 327.4642857142857" id="h1073567038" class="r"></path><path d="M 254 391.83000000000004 m -1, 0 a 1,1 0 1,0 2,0 a 1,1 0 1,0 -2,0 M 254 391.83000000000004 m -0.5, 0 a 0.5,0.5 0 1,0 1,0 a 0.5,0.5 0 1,0 -1,0  M254 391.83000000000004 L254 391.83000000000004 242 391.83000000000004 M248 397.83000000000004 L248 397.83000000000004 248 385.83000000000004 M242 391.83000000000004 Q 226.66 391.83000000000004, 211.32 362.65 T 180.63 333.4642857142857 M 168.63 333.4642857142857 m -1, 0 a 1,1 0 1,0 2,0 a 1,1 0 1,0 -2,0 M 168.63 333.4642857142857 m -0.5, 0 a 0.5,0.5 0 1,0 1,0 a 0.5,0.5 0 1,0 -1,0  M168.63 333.4642857142857 L168.63 333.4642857142857 180.63 333.4642857142857 M 168.63 339.4642857142857 m -1, 0 a 1,1 0 1,0 2,0 a 1,1 0 1,0 -2,0 M 168.63 339.4642857142857 m -0.5, 0 a 0.5,0.5 0 1,0 1,0 a 0.5,0.5 0 1,0 -1,0  M168.63 339.4642857142857 L168.63 339.4642857142857 175.63 333.4642857142857 168.63 327.4642857142857 M 168.63 327.4642857142857 m -1, 0 a 1,1 0 1,0 2,0 a 1,1 0 1,0 -2,0 M 168.63 327.4642857142857 m -0.5, 0 a 0.5,0.5 0 1,0 1,0 a 0.5,0.5 0 1,0 -1,0 " id="h1902019095" class="r"></path><path d="M 255.08 583.5799999999999 m -1, 0 a 1,1 0 1,0 2,0 a 1,1 0 1,0 -2,0 M 255.08 583.5799999999999 m -0.5, 0 a 0.5,0.5 0 1,0 1,0 a 0.5,0.5 0 1,0 -1,0  M255.08 583.5799999999999 L255.08 583.5799999999999 243.08 583.5799999999999 M249.08 589.5799999999999 L249.08 589.5799999999999 249.08 577.5799999999999 M243.08 583.5799999999999 Q 227.47 583.5799999999999, 211.86 458.52 T 180.63 333.4642857142857 M 168.63 333.4642857142857 m -1, 0 a 1,1 0 1,0 2,0 a 1,1 0 1,0 -2,0 M 168.63 333.4642857142857 m -0.5, 0 a 0.5,0.5 0 1,0 1,0 a 0.5,0.5 0 1,0 -1,0  M168.63 333.4642857142857 L168.63 333.4642857142857 180.63 333.4642857142857 M174.63 339.4642857142857 L174.63 339.4642857142857 174.63 327.4642857142857" id="h49484153" class="r"></path></g><g class="hrs"></g><g class="ts"><svg width="161.83" height="175" x="291.84" y="-24.97" id="h1288854339" class="t"><rect height="40" width="161.83" class="th"></rect><text x="13" y="25" class="tht">dept_employees</text><rect height="135" width="161.83" class="t-bg"></rect><text x="13" y="61" class="tf">emp_no<tspan x="148.83" class="ty">INT</tspan></text><text x="13" y="86" class="tf">dept_no<tspan x="148.83" class="ty">VARCHAR(5)</tspan></text><text x="13" y="111" class="tf">from_date<tspan x="148.83" class="ty">DATE</tspan></text><text x="13" y="136" class="tf">to_date<tspan x="148.83" class="ty">DATE</tspan></text><text x="13" y="161" class="tf">...</text></svg><svg width="161.83" height="175" x="58.75" y="-212.25" id="h3142830945" class="t"><rect height="40" width="161.83" class="th"></rect><text x="13" y="25" class="tht">dept_managers</text><rect height="135" width="161.83" class="t-bg"></rect><text x="13" y="61" class="tf">emp_no<tspan x="148.83" class="ty">INT</tspan></text><text x="13" y="86" class="tf">dept_no<tspan x="148.83" class="ty">VARCHAR(5)</tspan></text><text x="13" y="111" class="tf">from_date<tspan x="148.83" class="ty">DATE</tspan></text><text x="13" y="136" class="tf">to_date<tspan x="148.83" class="ty">DATE</tspan></text><text x="13" y="161" class="tf">...</text></svg><svg width="131.35" height="175" x="254" y="234.83" id="h2472833127" class="t"><rect height="40" width="131.35" class="th"></rect><text x="13" y="25" class="tht">salaries</text><rect height="135" width="131.35" class="t-bg"></rect><text x="13" y="61" class="tf">emp_no<tspan x="118.35" class="ty">INT</tspan></text><text x="13" y="86" class="tf">salary<tspan x="118.35" class="ty">DECIMAL</tspan></text><text x="13" y="111" class="tf">from_date<tspan x="118.35" class="ty">DATE</tspan></text><text x="13" y="136" class="tf">to_date<tspan x="118.35" class="ty">DATE</tspan></text><text x="13" y="161" class="tf">...</text></svg><svg width="131.14" height="175" x="255.08" y="426.58" id="h311790747" class="t"><rect height="40" width="131.14" class="th"></rect><text x="13" y="25" class="tht">titles</text><rect height="135" width="131.14" class="t-bg"></rect><text x="13" y="61" class="tf">emp_no<tspan x="118.13999999999999" class="ty">INT</tspan></text><text x="13" y="86" class="tf">title<tspan x="118.13999999999999" class="ty">VARCHAR</tspan></text><text x="13" y="111" class="tf">from_date<tspan x="118.13999999999999" class="ty">DATE</tspan></text><text x="13" y="136" class="tf">to_date<tspan x="118.13999999999999" class="ty">DATE</tspan></text><text x="13" y="161" class="tf">...</text></svg><svg width="159.81" height="200" x="8.82142857142872" y="276.4642857142857" id="h1639608377" class="t"><rect height="40" width="159.81" class="th"></rect><text x="13" y="25" class="tht">employees</text><rect height="160" width="159.81" class="t-bg"></rect><text x="13" y="61" class="tf fk">emp_no<tspan x="146.81" class="ty">INT</tspan></text><text x="13" y="86" class="tf">birth_date<tspan x="146.81" class="ty">DATE</tspan></text><text x="13" y="111" class="tf">first_name<tspan x="146.81" class="ty">VARCHAR</tspan></text><text x="13" y="136" class="tf">last_name<tspan x="146.81" class="ty">VARCHAR</tspan></text><text x="13" y="161" class="tf">gender<tspan x="146.81" class="ty">VARCHAR(1)</tspan></text><text x="13" y="186" class="tf">hire_date<tspan x="146.81" class="ty">DATE</tspan></text></svg><svg width="163.83" height="100" x="-153.90142857142848" y="55.27714285714274" id="h475896179" class="t"><rect height="40" width="163.83" class="th"></rect><text x="13" y="25" class="tht">departments</text><rect height="60" width="163.83" class="t-bg"></rect><text x="13" y="61" class="tf fk">dept_no<tspan x="150.83" class="ty">VARCHAR(5)</tspan></text><text x="13" y="86" class="tf">dept_name<tspan x="150.83" class="ty">VARCHAR</tspan></text></svg></g></g><text class="qdbd-link" x="10" y="20">www.quickdatabasediagrams.com</text></svg>